<?xml version="1.0" encoding="UTF-8" standalone="no"?>
<!-- Created with Inkscape (http://www.inkscape.org/) -->

<svg
   width="210mm"
   height="297mm"
   viewBox="0 0 793.7007874 1122.519685"
   version="1.1"
   id="svg798"
   inkscape:version="1.1.2 (b8e25be833, 2022-02-05)"
   sodipodi:docname="remove.svg"
   xmlns:inkscape="http://www.inkscape.org/namespaces/inkscape"
   xmlns:sodipodi="http://sodipodi.sourceforge.net/DTD/sodipodi-0.dtd"
   xmlns="http://www.w3.org/2000/svg"
   xmlns:svg="http://www.w3.org/2000/svg"
   xmlns:rdf="http://www.w3.org/1999/02/22-rdf-syntax-ns#"
   xmlns:cc="http://creativecommons.org/ns#"
   xmlns:dc="http://purl.org/dc/elements/1.1/">
  <defs
     id="defs792" />
  <sodipodi:namedview
     id="base"
     pagecolor="#ffffff"
     bordercolor="#666666"
     borderopacity="1.0"
     inkscape:pageopacity="0.0"
     inkscape:pageshadow="2"
     inkscape:zoom="0.35"
     inkscape:cx="1234.258"
     inkscape:cy="898.0779"
     inkscape:document-units="px"
     inkscape:current-layer="layer1"
     inkscape:pagecheckerboard="0"
     showgrid="false"
     inkscape:window-width="1920"
     inkscape:window-height="1017"
     inkscape:window-x="-8"
     inkscape:window-y="-8"
     inkscape:window-maximized="1" />
  <metadata
     id="metadata795">
    <rdf:RDF>
      <cc:Work
         rdf:about="">
        <dc:format>image/svg+xml</dc:format>
        <dc:type
           rdf:resource="http://purl.org/dc/dcmitype/StillImage" />
      </cc:Work>
    </rdf:RDF>
  </metadata>
  <g
     inkscape:label="Layer 1"
     inkscape:groupmode="layer"
     id="layer1">
    <path
       style="fill:#4d4d4d;stroke-width:0.923065"
       id="path841"
       d="m 65.058245,175.75043 c 25.948977,183.09818 84.254495,361.74988 96.421945,546.57381 44.00504,18.73563 41.65848,-37.46131 34.92703,-61.95259 C 188.6999,616.41314 174.92238,573.09231 174.04463,528.46292 153.63922,405.63679 114.78402,285.66863 102.25698,161.70414 87.322682,158.80722 78.507062,173.43868 65.058245,175.75043 Z" />
    <path
       style="fill:#4d4d4d;stroke-width:0.923065"
       id="path843"
       d="m 185.89096,767.49398 c 131.33468,12.41578 266.23239,31.33682 396.59547,2.20324 39.65227,-25.69662 -32.36796,-28.31108 -52.7826,-25.30729 -27.47817,-0.34166 -64.77147,7.13717 -77.83225,18.64021 -88.28584,3.94236 -181.25002,-30.25003 -265.98062,4.46384 z" />
    <path
       style="fill:#4d4d4d;stroke-width:0.923065"
       id="path847"
       d="m 625.33222,713.38839 c 7.88469,-25.30713 14.40856,-50.9045 19.99803,-76.70932 6.09339,-26.53953 10.34587,-53.38262 15.00065,-80.15221 4.70765,-22.17828 10.09337,-44.23534 14.61333,-66.4457 3.58963,-17.04621 8.53654,-33.83089 11.57697,-50.97211 1.96153,-14.68296 5.20606,-29.09638 9.12246,-43.42989 3.14798,-12.54264 6.27405,-25.07986 9.28258,-37.65069 3.12936,-13.39896 6.23928,-26.79631 9.78666,-40.10935 3.00878,-11.17477 5.90424,-22.36106 8.56502,-33.60547 3.3523,-11.81573 6.35359,-23.70838 9.53489,-35.56263 2.29888,-8.68874 4.61838,-17.36311 6.56758,-26.1246 0.82543,-8.95005 3.58655,-17.52289 5.67999,-26.25108 1.81247,-8.55603 2.25981,-17.26596 2.45698,-25.95553 0.13858,-5.82213 -0.12288,-11.64195 0.53662,-17.44111 0.14671,-1.28927 0.70906,-2.58089 0.49489,-3.86226 -0.28835,-1.72524 -1.30839,-3.27967 -1.9626,-4.9195 -4.51562,-7.86069 -12.43634,-12.75837 -20.72234,-16.93038 -7.44227,-3.19967 -15.52838,-4.87359 -23.46577,-6.71543 -10.60001,-1.69964 -21.31519,-2.84276 -31.99949,-4.04852 -12.43576,-1.30587 -24.84026,-2.6353 -37.34018,-3.31527 -16.71672,0.0137 -33.27753,-1.67308 -49.86793,-3.29548 -19.82429,-1.79281 -39.75721,-1.81999 -59.64031,-2.59203 -20.09042,-1.15507 -40.21275,-1.7289 -60.33587,-2.12534 -20.65972,-0.24444 -41.32261,-0.24749 -61.98394,-0.30517 -18.26533,-0.047 -36.53067,0.0176 -54.79611,-0.0175 -15.58934,-0.009 -31.17832,-0.0809 -46.76761,-0.0241 -14.69432,0.0291 -29.38813,-0.058 -44.08244,-0.0387 -11.96752,0.046 -23.93454,-0.0821 -35.902,-0.0646 -14.1228,0.0934 -28.24629,0.0847 -42.3694,0.073 -11.9276,-0.52565 -23.70851,0.34702 -35.44272,2.23427 -13.15055,1.68072 -25.54165,5.7716 -37.5197,10.84924 -16.984828,8.20873 -6.970798,3.29106 -42.805686,22.888 -4.570697,2.49957 -8.000711,6.08099 -10.994214,10.02441 -5.395906,6.90138 -9.486385,11.38453 -10.827415,19.9634 -0.01744,6.66085 4.639112,11.75206 9.712607,16.09274 4.794515,4.49191 10.865307,7.10046 17.23541,9.18125 10.57164,2.49675 21.43931,3.87334 32.27934,4.98764 16.085618,1.39938 32.281088,1.07928 48.419198,1.07831 22.09068,0.4274 44.1072,0.007 66.11996,-1.69305 22.65893,-2.01453 45.41582,-2.66081 68.16531,-3.05438 21.52115,-0.34486 43.04515,-0.31536 64.56858,-0.30386 24.60061,-0.0872 49.20088,-0.13121 73.80132,0.0137 17.85488,0.80563 35.41153,-2.55283 52.98891,-4.83421 13.35418,-1.75868 26.84114,-2.21952 40.31007,-2.52434 12.84255,-0.19346 25.68674,-0.0434 38.52997,-0.0254 12.71049,0.005 25.42108,-6.2e-4 38.13153,-0.0392 11.70095,-0.0381 23.4014,0.088 35.10216,0.11376 8.29773,0.0154 16.59505,0.0251 24.89273,-7.7e-4 7.74022,0.373 15.38705,-0.36922 23.04247,-1.27847 6.07966,-0.22094 11.75952,-1.47943 17.45826,-3.31862 18.45916,-6.69803 38.40146,-14.20219 52.11728,-27.37872 5.08178,-5.60446 8.44771,-11.9543 8.18474,-19.29404 -2.34186,-7.65278 -9.72957,-11.66869 -16.91511,-15.25487 -12.10199,-4.77281 -25.03114,-7.66794 -37.82934,-10.45732 -12.72935,-2.52186 -25.52593,-4.77025 -38.43793,-6.35022 -17.54582,-1.66847 -35.23266,-1.4738 -52.85022,-1.44897 -25.03149,0.0521 -50.06273,0.007 -75.09407,-0.0645 -20.60002,-0.0291 -41.19987,0.043 -61.79989,-0.007 -16.29858,-0.051 -32.59729,-0.0972 -48.89596,-0.0718 -23.53541,0.13359 -47.07014,0.22314 -70.60611,0.18846 -22.55415,-0.0231 -45.10827,-0.0629 -67.66237,-0.11289 -22.1935,0.13119 -44.38664,0.0775 -66.58017,-0.0137 -18.67519,0.0527 -37.03343,3.73121 -55.35846,6.63282 -15.61743,2.66282 -31.23001,5.68922 -46.34132,10.21913 -16.282918,6.47304 -12.567928,4.82245 -41.548258,22.12708 -1.21443,0.72516 -5.346329,10.73033 -5.975339,12.39811 -0.158929,7.89494 6.552149,11.036 13.473159,13.95656 18.27325,6.46378 7.40742,1.64164 39.461888,-19.41345 10.86107,-7.13413 -21.907498,14.05369 -32.393068,21.64161 -0.57111,0.4133 1.44224,0.19274 2.16335,0.28911 12.719058,2.30186 25.307258,5.12192 38.013208,7.48718 18.08771,3.45786 36.64845,3.53975 55.04389,3.92882 23.26218,0.39998 46.52899,0.35922 69.79397,0.30002 35.74584,-0.21905 71.49144,-0.32796 107.23805,-0.28607 34.46247,0.0137 68.92413,-0.0103 103.38622,0.17426 20.03034,0.0447 40.06011,0.15532 60.09003,0.27196 14.25361,0.0302 28.50705,-0.0175 42.76064,-0.0243 14.00639,0.0283 28.01214,-0.0103 42.01846,0.0616 9.62656,0.10022 19.25321,0.0261 28.87997,0.0439 9.1105,0.0521 18.22099,-0.009 27.33156,0.002 5.37514,0.0136 10.75018,0.0387 16.12535,0.0366 0,0 33.32787,-22.10558 33.32787,-22.10558 v 0 c -5.41206,-0.002 -10.82399,0.0239 -16.23602,0.0368 -9.11237,0.0103 -18.22466,-0.0503 -27.33698,0.002 -9.671,0.0178 -19.34183,-0.0558 -29.01262,0.0439 -14.06827,0.0703 -28.13595,0.034 -42.20428,0.0616 -14.22902,-0.007 -28.4579,-0.0548 -42.68696,-0.0245 -20.30313,0.11598 -40.60616,0.22619 -60.90972,0.27163 -34.64512,0.18271 -69.28983,0.16405 -103.93533,0.189 -35.49987,0.0563 -70.99885,-0.0287 -106.49821,-0.20515 -23.20381,-0.045 -46.40951,0.004 -69.61126,-0.31511 -18.06791,-0.37984 -36.28028,-0.55921 -54.0795,-3.7388 -12.49259,-2.36821 -24.95185,-4.83351 -37.35025,-7.55072 -0.86807,-0.32186 -1.79041,-1.38943 -2.60427,-0.9656 -52.948648,27.57401 -43.317828,29.82374 0.0116,0.86453 1.83603,-1.22708 -9.19475,-0.52461 -6.50065,-1.90195 -4.58862,-1.72542 -11.60492,-3.36207 -10.39064,-8.99365 7.81614,-17.31988 22.87992,-18.6085 -25.698118,6.33936 -1.20241,0.61752 2.35957,-1.3058 3.53935,-1.9587 14.90237,-5.42078 30.863508,-8.14459 46.500268,-11.1556 18.17104,-2.88382 36.37341,-6.34981 54.83525,-7.06665 22.20769,-0.0905 44.41503,-0.14625 66.62269,-0.0137 22.66746,-0.0498 45.33492,-0.0898 68.00243,-0.11272 23.34628,-0.0342 46.69133,0.0532 70.03703,0.18897 16.37276,0.0257 32.7456,-0.0209 49.11825,-0.0749 20.6307,-0.0544 41.26129,0.009 61.89194,-0.0518 25.07732,-0.10674 50.15508,-0.21832 75.23248,-0.0527 17.31021,0.17839 34.66429,0.11837 51.92166,1.5117 12.84252,1.36812 25.53722,3.56788 38.16758,6.07709 12.55441,2.45391 25.12384,5.33098 37.06081,9.68344 5.58829,2.77157 12.84421,5.67664 14.48165,11.80716 -0.60972,6.50588 -4.45179,12.05447 -9.54507,16.5311 -12.46031,9.24718 -3.13181,2.10969 30.30827,-15.24259 0.92699,-0.48101 -1.78289,1.07582 -2.73342,1.51686 -1.94216,0.90116 -3.88939,1.7945 -5.86222,2.63832 -0.97799,0.4183 -2.02418,0.68824 -3.03626,1.03237 -5.65622,1.65801 -10.8648,4.1689 -17.0004,3.93658 -7.60864,0.87867 -15.1534,2.27238 -22.86871,1.75743 -8.29705,-0.0263 -16.59376,-0.0154 -24.89085,-3.2e-4 -11.81109,0.026 -23.62191,0.15019 -35.43319,0.10726 -12.63581,-0.0464 -25.27175,-0.0631 -37.90757,-0.1028 -12.93591,-0.0234 -25.87148,0.071 -38.80714,0.12896 -13.57769,0.0811 -27.17001,0.46949 -40.64001,2.17007 -17.60432,2.26764 -35.13491,5.99471 -53.00798,5.49356 -24.58608,0.12778 -49.17175,0.0681 -73.75781,-0.0433 -21.54718,0.0103 -43.097,-0.0208 -64.64206,0.25932 -22.788,0.45849 -45.60244,0.96056 -68.31246,2.84986 -21.96493,1.8029 -43.90963,2.58517 -65.97317,2.0091 -15.85292,-0.11836 -31.7348,-0.10177 -47.55212,-1.19004 -10.61924,-0.9372 -21.16758,-2.4061 -31.60207,-4.43245 -5.947968,-1.64547 -11.701098,-3.93853 -16.190258,-7.98433 -4.2755,-3.23425 -8.36346,-7.29776 -7.67314,-12.68039 1.85669,-7.00057 6.84562,-12.59584 11.52245,-18.25812 2.63826,-2.66833 5.22797,-4.94787 8.42163,-7.06114 0.99849,-0.66069 4.119178,-2.4704 3.04215,-1.92204 -26.30663,13.39268 -42.796911,22.81289 -27.48991,14.12898 11.78465,-5.25549 23.81595,-10.08383 36.957738,-11.67761 11.57388,-2.09549 23.24574,-3.30212 35.07074,-2.83932 14.04966,-0.0119 28.09971,-0.0211 42.14906,0.073 12.0324,0.0176 24.06439,-0.1105 36.09685,-0.0645 14.7333,0.0195 29.46615,-0.0675 44.19944,-0.0388 15.61936,0.0568 31.23839,-0.0184 46.85777,-0.0345 18.29636,-0.0447 36.59269,0.002 54.889,-0.0476 20.65141,-0.0404 41.30332,-0.0597 61.95299,0.24166 20.11981,0.29838 40.23492,0.82585 60.31877,2.01347 19.76855,0.89398 39.60026,0.73602 59.31696,2.5318 16.5851,1.59473 33.11653,3.64441 49.83584,3.53606 12.38741,0.63037 24.66768,1.91739 36.97575,3.2724 10.55298,1.10797 21.08072,2.43368 31.60293,3.72945 7.70386,1.71296 15.43592,3.50921 22.88127,6.00246 7.50328,3.35584 15.02204,7.56174 19.17884,14.39673 0.36213,1.18303 0.97571,2.32493 1.08639,3.54914 0.11938,1.3197 -0.29959,2.63454 -0.40802,3.95502 -0.48033,5.85048 -0.14594,11.71364 -0.40381,17.57247 -0.32268,8.48303 -0.82373,17.0022 -2.8405,25.31617 -2.2208,8.71661 -4.35709,17.40994 -5.63713,26.29349 -2.0666,8.67196 -4.29513,17.30683 -6.46155,25.95759 -3.0726,11.86282 -6.14812,23.7242 -9.38227,35.55146 -2.90469,11.18679 -5.67781,22.39545 -8.61027,33.57675 -3.43147,13.35352 -6.38947,26.80213 -9.7411,40.17229 -2.98223,12.54306 -6.18814,25.03517 -9.29451,37.55225 -3.77236,14.40804 -6.64158,28.93217 -8.84451,43.61177 -3.21141,17.00114 -7.7654,33.75507 -11.20668,50.71755 -4.70525,22.1719 -9.60285,44.30571 -14.38338,66.46366 -4.65054,26.58337 -8.33237,53.31804 -14.33888,79.69005 -5.89556,25.98296 -12.65608,51.85442 -22.01218,77.00384 0,0 37.18615,-15.85519 37.18615,-15.85519 z" />
    <path
       style="fill:#4d4d4d;stroke-width:0.923065"
       id="path849"
       d="m 180.94743,298.64128 c 16.95347,96.5587 21.89088,196.76306 62.94671,288.2135 14.35832,23.28601 29.64504,-32.96615 25.00993,-49.66026 -6.52429,-62.28426 -50.66437,-118.88155 -40.86492,-182.95949 -2.34991,-21.64161 1.92352,-75.18425 -35.36781,-64.2635 -4.32376,2.38043 -8.14447,5.44149 -11.72391,8.66975 z" />
    <path
       style="fill:#4d4d4d;stroke-width:0.923065"
       id="path851"
       d="m 280.2957,305.90911 c 20.11692,83.13029 -6.08409,171.35406 24.91223,252.75408 8.09459,23.62043 34.20265,46.57641 31.90411,7.27416 9.08404,-78.44509 -30.05685,-155.36639 -13.77122,-233.80308 2.92179,-23.99185 -18.45372,-55.22363 -43.04512,-26.22516 z" />
    <path
       style="fill:#4d4d4d;stroke-width:0.923065"
       id="path853"
       d="m 371.42506,303.97289 c 8.01342,87.25678 -12.8391,176.42804 10.3278,262.42475 4.28957,16.16468 19.22098,45.20476 26.53635,14.72124 29.63327,-73.52334 -28.14518,-150.65926 1.22274,-224.41724 3.83258,-21.86227 2.1312,-81.49901 -38.08689,-52.72875 z" />
    <path
       style="fill:#4d4d4d;stroke-width:0.923065"
       id="path855"
       d="m 456.95152,300.86933 c 9.09474,91.60812 -11.16665,184.03521 3.56324,275.29335 2.01556,17.33592 12.05883,35.75095 19.90024,10.27776 36.06751,-71.37569 3.442,-150.03773 7.72212,-224.67614 -1.49101,-23.54463 26.35678,-75.27638 -20.9121,-69.04028 -4.12199,1.85233 -7.54582,4.80896 -10.2735,8.14531 z" />
    <path
       style="fill:#4d4d4d;stroke-width:0.923065"
       id="path857"
       d="m 553.58074,303.68105 c 10.74641,91.59242 -12.9252,183.47987 -1.96397,274.98499 4.27788,28.20856 29.58699,-21.07333 32.48456,-34.98399 16.92256,-64.01175 -9.93531,-130.3089 7.36418,-194.36253 6.33168,-23.88006 -0.10447,-85.46548 -37.88477,-45.63847 z" />
    <path
       style="fill:#808080;stroke-width:0.923065"
       id="path1591"
       d="m 173.07724,752.43765 c 17.7893,27.59838 61.21345,-15.58637 24.9106,-17.61267 -10.02626,3.4777 -17.70904,10.65161 -24.9106,17.61267 z" />
    <path
       style="fill:#999999;stroke-width:0.923065"
       id="path1595"
       d="m 588.62641,726.6875 c -11.58106,16.73635 -0.63818,41.6358 16.58121,16.21307 17.724,-12.67872 14.67051,-38.79886 -9.68138,-20.18744 l -3.31673,1.86072 z" />
    <path
       style="fill:#cccccc;stroke-width:2.63732"
       d="M 482.25729,761.84959 C 405.46106,745.26756 323.17821,774.81693 248.51541,746.76351 213.05725,732.97255 195.92195,697.39305 196.19633,663.83045 177.32007,508.961 138.00101,357.0907 107.82906,203.91905 c 190.14976,-6.08867 380.51555,-7.4143 570.45851,-18.23353 35.99682,27.27189 26.18709,74.03821 11.29716,108.98362 -14.39185,35.84306 -31.44746,72.19454 -30.14791,110.99846 -27.53932,109.2595 -41.04884,221.23872 -74.05379,329.38715 -19.67437,32.67838 -67.79918,37.06763 -103.12574,26.79484 z M 255.31874,607.30216 c 30.35555,-48.58429 5.99856,-104.60585 -9.96383,-153.49756 -11.32277,-31.15758 -14.85719,-64.12393 -10.94193,-96.64744 3.58909,-22.80383 -34.50411,-81.5018 -49.71256,-39.1249 -7.60266,28.97915 11.56179,55.54721 13.73482,84.17316 13.74712,68.93707 10.87134,145.47286 56.8835,205.09674 z m 75.19389,-2.75259 c 29.94827,-61.97647 -5.62592,-127.39829 -8.25949,-190.72691 -3.88136,-30.21153 17.27609,-62.05813 -3.2968,-89.96696 -26.59401,-36.49203 -51.06019,14.0716 -36.2842,37.59757 17.88249,70.74536 -2.33392,145.49227 20.09572,215.6001 4.56157,11.94737 13.12447,24.7152 27.74477,27.4962 z m 74.45765,0.0318 c 35.95349,-76.19936 -19.20455,-158.65694 9.40157,-236.06168 11.28669,-22.02695 -12.35908,-84.98333 -40.56405,-53.4427 -11.61477,34.45563 -0.55903,70.88127 -2.88607,106.26883 0.73651,60.27792 -0.59691,121.44425 15.36121,180.39274 5.84545,4.89574 11.38901,4.38951 18.68734,2.84281 z m 73.32061,0.62993 c 41.1542,-83.16249 5.59918,-174.81894 14.91821,-261.75835 13.00471,-40.16893 -52.44029,-27.71368 -38.96864,9.47271 -4.86913,67.85886 11.64848,136.00216 0.14071,203.55925 -1.37153,16.04073 -9.68988,61.40833 23.90979,48.72639 z m 79.93681,-4.25302 c 41.12992,-46.25204 29.33409,-108.99056 28.37152,-163.98067 -2.12525,-27.59169 5.65125,-54.40029 10.21882,-81.27811 9.39835,-27.49373 -36.45842,-77.45025 -43.22389,-27.57581 -2.85399,36.80842 3.79852,73.84155 0.22778,110.7951 -2.38087,53.03478 -9.08509,105.84046 -10.59252,158.9158 4.35712,5.85576 8.37884,4.62363 14.99829,3.12369 z"
       id="path1823" />
    <path
       style="fill:#333333;stroke-width:2.63732"
       d="m 180.01024,159.67072 c -32.86648,8.92355 -62.99205,-22.62503 -17.71821,-31.22801 37.73137,-9.81834 75.1793,7.05822 113.83242,0.69362 134.48728,-1.43073 269.98179,-3.06339 403.05083,17.55745 -20.92207,25.12618 -61.33135,17.43778 -91.8698,17.68365 -47.24935,-2.64027 -94.79336,-8.33725 -141.95413,-2.48105 -88.45141,-0.0354 -176.9091,-0.41333 -265.34111,-2.22566 z"
       id="path1899" />
    <path
       id="path2012"
       style="fill:#b3b3b3;stroke-width:0.923065"
       d="m 230.62198,280.11662 c -20.9858,79.19651 27.34411,154.70433 28.69204,233.32445 2.67706,14.11414 8.50646,52.71564 23.42229,48.93078 -2.32034,-41.60448 -16.44885,-82.00378 -23.36003,-123.15763 -10.90881,-52.82261 -20.81911,-105.82979 -28.7543,-159.0976 z" />
    <path
       style="fill:#b3b3b3;stroke-width:0.923065"
       id="path2015"
       d="m 316.11223,293.99857 c 16.3599,86.92072 3.32253,176.83106 26.06484,262.86426 12.28398,37.19732 6.13411,-21.6011 6.48603,-35.4698 -3.64088,-75.27294 -16.80434,-149.93002 -18.55666,-225.30614 -3.96512,-4.97321 -8.43443,-3.48048 -13.99421,-2.08832 z" />
    <path
       style="fill:#b3b3b3;stroke-width:0.923065"
       id="path2017"
       d="M 434.42905,587.03131 C 420.09129,498.7218 421.43026,408.97993 419.97954,319.90547 c -0.43721,-13.65616 0.97131,-50.17783 2.04377,-15.27752 -13.02855,84.33076 -28.58135,173.03356 0.39777,256.25629 3.31102,8.96207 7.26923,17.73307 12.00797,26.14707 z" />
    <path
       style="fill:#b3b3b3;stroke-width:0.923065"
       id="path2019"
       d="m 492.07265,287.82378 c 7.8052,95.53958 2.57212,191.65126 12.80857,287.04353 23.86316,-81.71969 -4.92302,-165.81357 4.08486,-248.54685 -2.10859,-13.33933 0.69474,-33.02381 -16.89343,-38.49668 z" />
    <path
       style="fill:#b3b3b3;stroke-width:0.923065"
       id="path2025"
       d="m 591.15025,288.99734 c -2.57905,66.5471 -0.92309,133.28652 2.99065,199.74759 3.7183,-66.46639 8.24544,-133.64502 -2.99065,-199.74759 z" />
    <path
       style="fill:#b3b3b3;stroke-width:0.923065"
       id="path2027"
       d="m 584.22421,521.48469 c -3.01552,13.75064 -12.70844,50.01305 2.84199,52.78006 4.88965,-17.25036 0.19496,-35.57758 -2.84199,-52.78006 z" />
    <path
       style="fill:#b3b3b3;stroke-width:0.923065"
       id="path2041"
       d="m 113.47734,223.17402 c 181.38672,1.38597 362.29389,-14.24163 543.64206,-14.77739 17.76622,-2.32248 55.07921,-25.5825 14.03394,-22.65875 -53.71719,0.23466 -106.97452,10.27152 -160.29864,12.73862 15.46694,-4.3376 35.22764,-7.15746 7.00364,-4.88021 -122.73491,6.32309 -245.66089,8.42181 -368.52767,11.48019 -13.48766,2.6829 -26.81383,8.29606 -35.85333,18.09754 z" />
    <path
       style="fill:#b3b3b3;stroke-width:0.923065"
       id="path2049"
       d="m 216.23277,294.79184 c 27.9911,89.58125 21.16246,186.68974 62.10802,273.06202 6.47527,14.67083 16.49693,27.14479 15.88577,3.32463 10.03809,-89.36268 -44.71194,-171.34862 -45.00948,-260.00015 -0.97019,-13.55062 -19.67969,-27.00623 -32.98431,-16.3865 z" />
    <path
       style="fill:#b3b3b3;stroke-width:0.923065"
       id="path2051"
       d="m 313.04752,297.46372 c 30.21734,95.30925 -8.68135,201.18218 42.95038,291.99764 16.71852,-62.74656 0.71894,-127.64234 -5.81031,-190.70255 -4.68184,-34.61023 -8.84825,-69.97837 -8.68038,-104.43467 -6.43541,-9.48529 -23.16083,-5.07397 -28.45969,3.13958 z" />
    <path
       style="fill:#b3b3b3;stroke-width:0.923065"
       id="path2057"
       d="m 402.86351,300.0841 c 30.58828,81.26615 -10.78957,168.22241 13.64801,250.19348 4.28472,15.78422 26.83299,49.34555 21.46931,14.46172 1.09058,-78.56982 -2.59331,-157.21732 0.83516,-235.72823 -0.17948,-16.64331 -13.8974,-42.85605 -35.95248,-28.92697 z" />
    <path
       style="fill:#b3b3b3;stroke-width:0.923065"
       id="path2059"
       d="m 487.56556,292.71331 c 23.93216,96.92338 -8.0049,197.62641 17.11275,294.26806 7.3677,-7.79772 12.07099,-48.8211 15.51484,-69.91193 8.09522,-63.73705 6.04311,-128.40165 -4.17967,-191.83365 -6.14852,-8.70466 -8.97064,-50.86803 -28.44792,-32.52248 z" />
    <path
       style="fill:#b3b3b3;stroke-width:0.923065"
       id="path2061"
       d="m 588.08561,294.35216 c 7.6431,94.7533 6.81623,190.13443 -3.62129,284.68503 41.32903,3.76634 30.20846,-50.7788 32.37848,-76.06309 -1.04959,-29.86988 -1.35495,-60.2375 2.65266,-89.56586 -2.6008,-38.20122 6.01739,-78.17464 -8.12065,-115.01069 -3.51608,-9.66763 -16.03774,-9.94704 -23.2892,-4.04539 z" />
    <path
       style="fill:#b3b3b3;stroke-width:0.923065"
       id="path2063"
       d="m 197.21696,684.47148 c 3.19919,38.6648 40.94469,66.17269 81.02706,71.35563 58.02853,10.16391 117.67401,2.09699 175.88846,10.71587 28.27216,-0.8457 83.58529,-0.30109 95.54017,-13.31818 -62.9971,-3.00034 -126.12186,0.82729 -189.19234,0.11034 -53.29406,-0.97671 -112.20319,-14.09476 -144.84424,-55.86614 4.07616,-15.43616 -3.30207,-24.71977 -18.41911,-12.99757 z" />
    <path
       style="fill:#b3b3b3;stroke-width:0.923065"
       id="path2065"
       d="m 584.9512,661.98678 c -6.21797,21.18527 -20.74334,58.26728 -5.84739,72.49498 9.74426,-19.60803 36.97026,-61.63881 10.46651,-73.77493 z" />
  </g>
</svg>
